<?xml version="1.0" encoding="UTF-8" standalone="no"?><svg xmlns="http://www.w3.org/2000/svg" xmlns:xlink="http://www.w3.org/1999/xlink" clip-rule="evenodd" stroke-miterlimit="4.00" viewBox="0 0 1024 768"><desc>SVG generated by Keynote</desc><defs></defs><g transform="matrix(1.00, 0.00, -0.00, -1.00, 0.0, 768.0)"><g><clipPath id="clip-13"><path d="M 0.0 768.0 L 1024.0 768.0 L 1024.0 0.0 L 0.0 0.0 Z M 0.0 768.0 "></path></clipPath><g clip-path="url(#clip-13)"><image xlink:href="../../8D385DDC-F656-452C-BE3F-ECEED2300590/assets/3FBB98853A833B6E3BBFA0AF677D3F24.jpeg" width="1024.00" height="768.00" transform="matrix(1.00, 0.00, -0.00, -1.00, 0.0, 768.0)"></image></g></g><path d="M 0.0 0.0 L 960.0 0.0 " fill="none" stroke="#7995B9" stroke-width="1.00" transform="matrix(1.00, 0.00, 0.00, -1.00, 32.0, 566.0)"></path><path d="M 0.0 0.0 L 960.0 0.0 " fill="none" stroke="#7995B9" stroke-width="1.00" transform="matrix(1.00, 0.00, 0.00, -1.00, 32.0, 562.0)"></path><text xml:space="preserve" font-family="Didot" font-size="64.0" fill="#304863" transform="matrix(1.00, 0.00, -0.00, -1.00, 50.0, 632.0)">O</text><text xml:space="preserve" font-family="Didot" font-size="64.0" fill="#304863" transform="matrix(1.00, 0.00, -0.00, -1.00, 102.0, 632.0)">p</text><text xml:space="preserve" font-family="Didot" font-size="64.0" fill="#304863" transform="matrix(1.00, 0.00, -0.00, -1.00, 138.6, 632.0)">e</text><text xml:space="preserve" font-family="Didot" font-size="64.0" fill="#304863" transform="matrix(1.00, 0.00, -0.00, -1.00, 169.4, 632.0)">r</text><text xml:space="preserve" font-family="Didot" font-size="64.0" fill="#304863" transform="matrix(1.00, 0.00, -0.00, -1.00, 194.1, 632.0)">a</text><text xml:space="preserve" font-family="Didot" font-size="64.0" fill="#304863" transform="matrix(1.00, 0.00, -0.00, -1.00, 223.6, 632.0)">t</text><text xml:space="preserve" font-family="Didot" font-size="64.0" fill="#304863" transform="matrix(1.00, 0.00, -0.00, -1.00, 243.7, 632.0)">i</text><text xml:space="preserve" font-family="Didot" font-size="64.0" fill="#304863" transform="matrix(1.00, 0.00, -0.00, -1.00, 261.3, 632.0)">o</text><text xml:space="preserve" font-family="Didot" font-size="64.0" fill="#304863" transform="matrix(1.00, 0.00, -0.00, -1.00, 295.6, 632.0)">n</text><text xml:space="preserve" font-family="Didot" font-size="64.0" fill="#304863" transform="matrix(1.00, 0.00, -0.00, -1.00, 333.5, 632.0)"> </text><text xml:space="preserve" font-family="Didot" font-size="64.0" fill="#304863" transform="matrix(1.00, 0.00, -0.00, -1.00, 350.0, 632.0)">c</text><text xml:space="preserve" font-family="Didot" font-size="64.0" fill="#304863" transform="matrix(1.00, 0.00, -0.00, -1.00, 379.5, 632.0)">l</text><text xml:space="preserve" font-family="Didot" font-size="64.0" fill="#304863" transform="matrix(1.00, 0.00, -0.00, -1.00, 397.1, 632.0)">a</text><text xml:space="preserve" font-family="Didot" font-size="64.0" fill="#304863" transform="matrix(1.00, 0.00, -0.00, -1.00, 426.6, 632.0)">s</text><text xml:space="preserve" font-family="Didot" font-size="64.0" fill="#304863" transform="matrix(1.00, 0.00, -0.00, -1.00, 452.6, 632.0)">s</text><text xml:space="preserve" font-family="Didot" font-size="64.0" fill="#304863" transform="matrix(1.00, 0.00, -0.00, -1.00, 478.6, 632.0)">i</text><text xml:space="preserve" font-family="Didot" font-size="64.0" fill="#304863" transform="matrix(1.00, 0.00, -0.00, -1.00, 496.3, 632.0)">f</text><text xml:space="preserve" font-family="Didot" font-size="64.0" fill="#304863" transform="matrix(1.00, 0.00, -0.00, -1.00, 516.9, 632.0)">i</text><text xml:space="preserve" font-family="Didot" font-size="64.0" fill="#304863" transform="matrix(1.00, 0.00, -0.00, -1.00, 534.6, 632.0)">e</text><text xml:space="preserve" font-family="Didot" font-size="64.0" fill="#304863" transform="matrix(1.00, 0.00, -0.00, -1.00, 565.3, 632.0)">r</text><text xml:space="preserve" font-family="ZapfDingbatsITC" font-size="26.6" fill="#5B86B8" transform="matrix(1.00, 0.00, -0.00, -1.00, 32.0, 319.2)">✤</text><text xml:space="preserve" font-family="Palatino-Roman" font-size="38.0" fill="#000000" transform="matrix(1.00, 0.00, -0.00, -1.00, 72.0, 316.0)">C</text><text xml:space="preserve" font-family="Palatino-Roman" font-size="38.0" fill="#000000" transform="matrix(1.00, 0.00, -0.00, -1.00, 98.9, 316.0)">l</text><text xml:space="preserve" font-family="Palatino-Roman" font-size="38.0" fill="#000000" transform="matrix(1.00, 0.00, -0.00, -1.00, 110.0, 316.0)">a</text><text xml:space="preserve" font-family="Palatino-Roman" font-size="38.0" fill="#000000" transform="matrix(1.00, 0.00, -0.00, -1.00, 129.0, 316.0)">s</text><text xml:space="preserve" font-family="Palatino-Roman" font-size="38.0" fill="#000000" transform="matrix(1.00, 0.00, -0.00, -1.00, 145.1, 316.0)">s</text><text xml:space="preserve" font-family="Palatino-Roman" font-size="38.0" fill="#000000" transform="matrix(1.00, 0.00, -0.00, -1.00, 161.2, 316.0)">i</text><text xml:space="preserve" font-family="Palatino-Roman" font-size="38.0" fill="#000000" transform="matrix(1.00, 0.00, -0.00, -1.00, 172.3, 316.0)">f</text><text xml:space="preserve" font-family="Palatino-Roman" font-size="38.0" fill="#000000" transform="matrix(1.00, 0.00, -0.00, -1.00, 184.9, 316.0)">y</text><text xml:space="preserve" font-family="Palatino-Roman" font-size="38.0" fill="#000000" transform="matrix(1.00, 0.00, -0.00, -1.00, 206.1, 316.0)"> </text><text xml:space="preserve" font-family="Palatino-Roman" font-size="38.0" fill="#000000" transform="matrix(1.00, 0.00, -0.00, -1.00, 215.6, 316.0)">t</text><text xml:space="preserve" font-family="Palatino-Roman" font-size="38.0" fill="#000000" transform="matrix(1.00, 0.00, -0.00, -1.00, 228.0, 316.0)">h</text><text xml:space="preserve" font-family="Palatino-Roman" font-size="38.0" fill="#000000" transform="matrix(1.00, 0.00, -0.00, -1.00, 250.1, 316.0)">e</text><text xml:space="preserve" font-family="Palatino-Roman" font-size="38.0" fill="#000000" transform="matrix(1.00, 0.00, -0.00, -1.00, 268.3, 316.0)"> </text><text xml:space="preserve" font-family="Palatino-Roman" font-size="38.0" fill="#000000" transform="matrix(1.00, 0.00, -0.00, -1.00, 277.8, 316.0)">s</text><text xml:space="preserve" font-family="Palatino-Roman" font-size="38.0" fill="#000000" transform="matrix(1.00, 0.00, -0.00, -1.00, 293.9, 316.0)">e</text><text xml:space="preserve" font-family="Palatino-Roman" font-size="38.0" fill="#000000" transform="matrix(1.00, 0.00, -0.00, -1.00, 312.1, 316.0)">g</text><text xml:space="preserve" font-family="Palatino-Roman" font-size="38.0" fill="#000000" transform="matrix(1.00, 0.00, -0.00, -1.00, 333.2, 316.0)">m</text><text xml:space="preserve" font-family="Palatino-Roman" font-size="38.0" fill="#000000" transform="matrix(1.00, 0.00, -0.00, -1.00, 366.8, 316.0)">e</text><text xml:space="preserve" font-family="Palatino-Roman" font-size="38.0" fill="#000000" transform="matrix(1.00, 0.00, -0.00, -1.00, 385.0, 316.0)">n</text><text xml:space="preserve" font-family="Palatino-Roman" font-size="38.0" fill="#000000" transform="matrix(1.00, 0.00, -0.00, -1.00, 407.1, 316.0)">t</text><text xml:space="preserve" font-family="Palatino-Roman" font-size="38.0" fill="#000000" transform="matrix(1.00, 0.00, -0.00, -1.00, 419.5, 316.0)">a</text><text xml:space="preserve" font-family="Palatino-Roman" font-size="38.0" fill="#000000" transform="matrix(1.00, 0.00, -0.00, -1.00, 438.5, 316.0)">t</text><text xml:space="preserve" font-family="Palatino-Roman" font-size="38.0" fill="#000000" transform="matrix(1.00, 0.00, -0.00, -1.00, 450.9, 316.0)">i</text><text xml:space="preserve" font-family="Palatino-Roman" font-size="38.0" fill="#000000" transform="matrix(1.00, 0.00, -0.00, -1.00, 461.9, 316.0)">o</text><text xml:space="preserve" font-family="Palatino-Roman" font-size="38.0" fill="#000000" transform="matrix(1.00, 0.00, -0.00, -1.00, 482.7, 316.0)">n</text><text xml:space="preserve" font-family="ZapfDingbatsITC" font-size="26.6" fill="#5B86B8" transform="matrix(1.00, 0.00, -0.00, -1.00, 32.0, 227.2)">✤</text><text xml:space="preserve" font-family="Palatino-Roman" font-size="38.0" fill="#000000" transform="matrix(1.00, 0.00, -0.00, -1.00, 72.0, 224.0)">A</text><text xml:space="preserve" font-family="Palatino-Roman" font-size="38.0" fill="#000000" transform="matrix(1.00, 0.00, -0.00, -1.00, 101.6, 224.0)">c</text><text xml:space="preserve" font-family="Palatino-Roman" font-size="38.0" fill="#000000" transform="matrix(1.00, 0.00, -0.00, -1.00, 118.4, 224.0)">c</text><text xml:space="preserve" font-family="Palatino-Roman" font-size="38.0" fill="#000000" transform="matrix(1.00, 0.00, -0.00, -1.00, 135.3, 224.0)">o</text><text xml:space="preserve" font-family="Palatino-Roman" font-size="38.0" fill="#000000" transform="matrix(1.00, 0.00, -0.00, -1.00, 156.0, 224.0)">r</text><text xml:space="preserve" font-family="Palatino-Roman" font-size="38.0" fill="#000000" transform="matrix(1.00, 0.00, -0.00, -1.00, 170.3, 224.0)">d</text><text xml:space="preserve" font-family="Palatino-Roman" font-size="38.0" fill="#000000" transform="matrix(1.00, 0.00, -0.00, -1.00, 193.6, 224.0)">i</text><text xml:space="preserve" font-family="Palatino-Roman" font-size="38.0" fill="#000000" transform="matrix(1.00, 0.00, -0.00, -1.00, 204.6, 224.0)">n</text><text xml:space="preserve" font-family="Palatino-Roman" font-size="38.0" fill="#000000" transform="matrix(1.00, 0.00, -0.00, -1.00, 226.7, 224.0)">g</text><text xml:space="preserve" font-family="Palatino-Roman" font-size="38.0" fill="#000000" transform="matrix(1.00, 0.00, -0.00, -1.00, 247.9, 224.0)"> </text><text xml:space="preserve" font-family="Palatino-Roman" font-size="38.0" fill="#000000" transform="matrix(1.00, 0.00, -0.00, -1.00, 257.4, 224.0)">t</text><text xml:space="preserve" font-family="Palatino-Roman" font-size="38.0" fill="#000000" transform="matrix(1.00, 0.00, -0.00, -1.00, 269.8, 224.0)">o</text><text xml:space="preserve" font-family="Palatino-Roman" font-size="38.0" fill="#000000" transform="matrix(1.00, 0.00, -0.00, -1.00, 290.5, 224.0)"> </text><text xml:space="preserve" font-family="Palatino-Roman" font-size="38.0" fill="#000000" transform="matrix(1.00, 0.00, -0.00, -1.00, 300.0, 224.0)">e</text><text xml:space="preserve" font-family="Palatino-Roman" font-size="38.0" fill="#000000" transform="matrix(1.00, 0.00, -0.00, -1.00, 318.2, 224.0)">a</text><text xml:space="preserve" font-family="Palatino-Roman" font-size="38.0" fill="#000000" transform="matrix(1.00, 0.00, -0.00, -1.00, 337.2, 224.0)">c</text><text xml:space="preserve" font-family="Palatino-Roman" font-size="38.0" fill="#000000" transform="matrix(1.00, 0.00, -0.00, -1.00, 354.1, 224.0)">h</text><text xml:space="preserve" font-family="Palatino-Roman" font-size="38.0" fill="#000000" transform="matrix(1.00, 0.00, -0.00, -1.00, 376.2, 224.0)"> </text><text xml:space="preserve" font-family="Palatino-Roman" font-size="38.0" fill="#000000" transform="matrix(1.00, 0.00, -0.00, -1.00, 385.7, 224.0)">o</text><text xml:space="preserve" font-family="Palatino-Roman" font-size="38.0" fill="#000000" transform="matrix(1.00, 0.00, -0.00, -1.00, 406.4, 224.0)">p</text><text xml:space="preserve" font-family="Palatino-Roman" font-size="38.0" fill="#000000" transform="matrix(1.00, 0.00, -0.00, -1.00, 429.3, 224.0)">e</text><text xml:space="preserve" font-family="Palatino-Roman" font-size="38.0" fill="#000000" transform="matrix(1.00, 0.00, -0.00, -1.00, 447.5, 224.0)">r</text><text xml:space="preserve" font-family="Palatino-Roman" font-size="38.0" fill="#000000" transform="matrix(1.00, 0.00, -0.00, -1.00, 462.5, 224.0)">a</text><text xml:space="preserve" font-family="Palatino-Roman" font-size="38.0" fill="#000000" transform="matrix(1.00, 0.00, -0.00, -1.00, 481.5, 224.0)">t</text><text xml:space="preserve" font-family="Palatino-Roman" font-size="38.0" fill="#000000" transform="matrix(1.00, 0.00, -0.00, -1.00, 493.9, 224.0)">i</text><text xml:space="preserve" font-family="Palatino-Roman" font-size="38.0" fill="#000000" transform="matrix(1.00, 0.00, -0.00, -1.00, 505.0, 224.0)">o</text><text xml:space="preserve" font-family="Palatino-Roman" font-size="38.0" fill="#000000" transform="matrix(1.00, 0.00, -0.00, -1.00, 525.7, 224.0)">n</text><text xml:space="preserve" font-family="Palatino-Roman" font-size="38.0" fill="#000000" transform="matrix(1.00, 0.00, -0.00, -1.00, 547.8, 224.0)">,</text><text xml:space="preserve" font-family="Palatino-Roman" font-size="38.0" fill="#000000" transform="matrix(1.00, 0.00, -0.00, -1.00, 557.3, 224.0)"> </text><text xml:space="preserve" font-family="Palatino-Roman" font-size="38.0" fill="#000000" transform="matrix(1.00, 0.00, -0.00, -1.00, 566.8, 224.0)">d</text><text xml:space="preserve" font-family="Palatino-Roman" font-size="38.0" fill="#000000" transform="matrix(1.00, 0.00, -0.00, -1.00, 590.0, 224.0)">e</text><text xml:space="preserve" font-family="Palatino-Roman" font-size="38.0" fill="#000000" transform="matrix(1.00, 0.00, -0.00, -1.00, 608.2, 224.0)">t</text><text xml:space="preserve" font-family="Palatino-Roman" font-size="38.0" fill="#000000" transform="matrix(1.00, 0.00, -0.00, -1.00, 620.6, 224.0)">e</text><text xml:space="preserve" font-family="Palatino-Roman" font-size="38.0" fill="#000000" transform="matrix(1.00, 0.00, -0.00, -1.00, 638.8, 224.0)">c</text><text xml:space="preserve" font-family="Palatino-Roman" font-size="38.0" fill="#000000" transform="matrix(1.00, 0.00, -0.00, -1.00, 655.7, 224.0)">t</text><text xml:space="preserve" font-family="Palatino-Roman" font-size="38.0" fill="#000000" transform="matrix(1.00, 0.00, -0.00, -1.00, 668.1, 224.0)"> </text><text xml:space="preserve" font-family="Palatino-Roman" font-size="38.0" fill="#000000" transform="matrix(1.00, 0.00, -0.00, -1.00, 677.6, 224.0)">t</text><text xml:space="preserve" font-family="Palatino-Roman" font-size="38.0" fill="#000000" transform="matrix(1.00, 0.00, -0.00, -1.00, 690.0, 224.0)">h</text><text xml:space="preserve" font-family="Palatino-Roman" font-size="38.0" fill="#000000" transform="matrix(1.00, 0.00, -0.00, -1.00, 712.1, 224.0)">e</text><text xml:space="preserve" font-family="Palatino-Roman" font-size="38.0" fill="#000000" transform="matrix(1.00, 0.00, -0.00, -1.00, 730.3, 224.0)"> </text><text xml:space="preserve" font-family="Palatino-Roman" font-size="38.0" fill="#000000" transform="matrix(1.00, 0.00, -0.00, -1.00, 739.8, 224.0)">p</text><text xml:space="preserve" font-family="Palatino-Roman" font-size="38.0" fill="#000000" transform="matrix(1.00, 0.00, -0.00, -1.00, 762.7, 224.0)">a</text><text xml:space="preserve" font-family="Palatino-Roman" font-size="38.0" fill="#000000" transform="matrix(1.00, 0.00, -0.00, -1.00, 781.7, 224.0)">r</text><text xml:space="preserve" font-family="Palatino-Roman" font-size="38.0" fill="#000000" transform="matrix(1.00, 0.00, -0.00, -1.00, 796.7, 224.0)">a</text><text xml:space="preserve" font-family="Palatino-Roman" font-size="38.0" fill="#000000" transform="matrix(1.00, 0.00, -0.00, -1.00, 815.7, 224.0)">m</text><text xml:space="preserve" font-family="Palatino-Roman" font-size="38.0" fill="#000000" transform="matrix(1.00, 0.00, -0.00, -1.00, 849.2, 224.0)">e</text><text xml:space="preserve" font-family="Palatino-Roman" font-size="38.0" fill="#000000" transform="matrix(1.00, 0.00, -0.00, -1.00, 867.4, 224.0)">t</text><text xml:space="preserve" font-family="Palatino-Roman" font-size="38.0" fill="#000000" transform="matrix(1.00, 0.00, -0.00, -1.00, 879.8, 224.0)">e</text><text xml:space="preserve" font-family="Palatino-Roman" font-size="38.0" fill="#000000" transform="matrix(1.00, 0.00, -0.00, -1.00, 898.0, 224.0)">r</text></g></svg>