<?xml version="1.0" encoding="UTF-8" standalone="no"?><svg xmlns="http://www.w3.org/2000/svg" xmlns:xlink="http://www.w3.org/1999/xlink" clip-rule="evenodd" stroke-miterlimit="4.00" viewBox="0 0 1024 768"><desc>SVG generated by Keynote</desc><defs></defs><g transform="matrix(1.00, 0.00, -0.00, -1.00, 0.0, 768.0)"><g><clipPath id="clip-3"><path d="M 0.0 768.0 L 1024.0 768.0 L 1024.0 0.0 L 0.0 0.0 Z M 0.0 768.0 "></path></clipPath><g clip-path="url(#clip-3)"><image xlink:href="../../8D385DDC-F656-452C-BE3F-ECEED2300590/assets/3FBB98853A833B6E3BBFA0AF677D3F24.jpeg" width="1024.00" height="768.00" transform="matrix(1.00, 0.00, -0.00, -1.00, 0.0, 768.0)"></image></g></g><path d="M 0.0 0.0 L 960.0 0.0 " fill="none" stroke="#7995B9" stroke-width="1.00" transform="matrix(1.00, 0.00, 0.00, -1.00, 32.0, 566.0)"></path><path d="M 0.0 0.0 L 960.0 0.0 " fill="none" stroke="#7995B9" stroke-width="1.00" transform="matrix(1.00, 0.00, 0.00, -1.00, 32.0, 562.0)"></path><text xml:space="preserve" font-family="Didot" font-size="64.0" fill="#304863" transform="matrix(1.00, 0.00, -0.00, -1.00, 50.0, 632.0)">G</text><text xml:space="preserve" font-family="Didot" font-size="64.0" fill="#304863" transform="matrix(1.00, 0.00, -0.00, -1.00, 99.7, 632.0)">o</text><text xml:space="preserve" font-family="Didot" font-size="64.0" fill="#304863" transform="matrix(1.00, 0.00, -0.00, -1.00, 134.0, 632.0)">a</text><text xml:space="preserve" font-family="Didot" font-size="64.0" fill="#304863" transform="matrix(1.00, 0.00, -0.00, -1.00, 163.5, 632.0)">l</text><text xml:space="preserve" font-family="ZapfDingbatsITC" font-size="26.6" fill="#5B86B8" transform="matrix(1.00, 0.00, -0.00, -1.00, 32.0, 411.2)">✤</text><text xml:space="preserve" font-family="Palatino-Roman" font-size="38.0" fill="#000000" transform="matrix(1.00, 0.00, -0.00, -1.00, 72.0, 408.0)">D</text><text xml:space="preserve" font-family="Palatino-Roman" font-size="38.0" fill="#000000" transform="matrix(1.00, 0.00, -0.00, -1.00, 101.4, 408.0)">e</text><text xml:space="preserve" font-family="Palatino-Roman" font-size="38.0" fill="#000000" transform="matrix(1.00, 0.00, -0.00, -1.00, 119.6, 408.0)">t</text><text xml:space="preserve" font-family="Palatino-Roman" font-size="38.0" fill="#000000" transform="matrix(1.00, 0.00, -0.00, -1.00, 132.0, 408.0)">e</text><text xml:space="preserve" font-family="Palatino-Roman" font-size="38.0" fill="#000000" transform="matrix(1.00, 0.00, -0.00, -1.00, 150.2, 408.0)">c</text><text xml:space="preserve" font-family="Palatino-Roman" font-size="38.0" fill="#000000" transform="matrix(1.00, 0.00, -0.00, -1.00, 167.1, 408.0)">t</text><text xml:space="preserve" font-family="Palatino-Roman" font-size="38.0" fill="#000000" transform="matrix(1.00, 0.00, -0.00, -1.00, 179.5, 408.0)"> </text><text xml:space="preserve" font-family="Palatino-Roman" font-size="38.0" fill="#000000" transform="matrix(1.00, 0.00, -0.00, -1.00, 189.0, 408.0)">r</text><text xml:space="preserve" font-family="Palatino-Roman" font-size="38.0" fill="#000000" transform="matrix(1.00, 0.00, -0.00, -1.00, 203.3, 408.0)">e</text><text xml:space="preserve" font-family="Palatino-Roman" font-size="38.0" fill="#000000" transform="matrix(1.00, 0.00, -0.00, -1.00, 221.5, 408.0)">a</text><text xml:space="preserve" font-family="Palatino-Roman" font-size="38.0" fill="#000000" transform="matrix(1.00, 0.00, -0.00, -1.00, 240.5, 408.0)">l</text><text xml:space="preserve" font-family="Palatino-Roman" font-size="38.0" fill="#000000" transform="matrix(1.00, 0.00, -0.00, -1.00, 251.6, 408.0)">-</text><text xml:space="preserve" font-family="Palatino-Roman" font-size="38.0" fill="#000000" transform="matrix(1.00, 0.00, -0.00, -1.00, 264.2, 408.0)">t</text><text xml:space="preserve" font-family="Palatino-Roman" font-size="38.0" fill="#000000" transform="matrix(1.00, 0.00, -0.00, -1.00, 276.6, 408.0)">i</text><text xml:space="preserve" font-family="Palatino-Roman" font-size="38.0" fill="#000000" transform="matrix(1.00, 0.00, -0.00, -1.00, 287.7, 408.0)">m</text><text xml:space="preserve" font-family="Palatino-Roman" font-size="38.0" fill="#000000" transform="matrix(1.00, 0.00, -0.00, -1.00, 321.2, 408.0)">e</text><text xml:space="preserve" font-family="Palatino-Roman" font-size="38.0" fill="#000000" transform="matrix(1.00, 0.00, -0.00, -1.00, 339.4, 408.0)"> </text><text xml:space="preserve" font-family="Palatino-Roman" font-size="38.0" fill="#000000" transform="matrix(1.00, 0.00, -0.00, -1.00, 348.9, 408.0)">v</text><text xml:space="preserve" font-family="Palatino-Roman" font-size="38.0" fill="#000000" transform="matrix(1.00, 0.00, -0.00, -1.00, 370.4, 408.0)">o</text><text xml:space="preserve" font-family="Palatino-Roman" font-size="38.0" fill="#000000" transform="matrix(1.00, 0.00, -0.00, -1.00, 391.1, 408.0)">i</text><text xml:space="preserve" font-family="Palatino-Roman" font-size="38.0" fill="#000000" transform="matrix(1.00, 0.00, -0.00, -1.00, 402.2, 408.0)">c</text><text xml:space="preserve" font-family="Palatino-Roman" font-size="38.0" fill="#000000" transform="matrix(1.00, 0.00, -0.00, -1.00, 419.1, 408.0)">e</text><text xml:space="preserve" font-family="Palatino-Roman" font-size="38.0" fill="#000000" transform="matrix(1.00, 0.00, -0.00, -1.00, 437.3, 408.0)"> </text><text xml:space="preserve" font-family="Palatino-Roman" font-size="38.0" fill="#000000" transform="matrix(1.00, 0.00, -0.00, -1.00, 446.8, 408.0)">s</text><text xml:space="preserve" font-family="Palatino-Roman" font-size="38.0" fill="#000000" transform="matrix(1.00, 0.00, -0.00, -1.00, 462.9, 408.0)">t</text><text xml:space="preserve" font-family="Palatino-Roman" font-size="38.0" fill="#000000" transform="matrix(1.00, 0.00, -0.00, -1.00, 475.3, 408.0)">r</text><text xml:space="preserve" font-family="Palatino-Roman" font-size="38.0" fill="#000000" transform="matrix(1.00, 0.00, -0.00, -1.00, 489.6, 408.0)">e</text><text xml:space="preserve" font-family="Palatino-Roman" font-size="38.0" fill="#000000" transform="matrix(1.00, 0.00, -0.00, -1.00, 507.8, 408.0)">a</text><text xml:space="preserve" font-family="Palatino-Roman" font-size="38.0" fill="#000000" transform="matrix(1.00, 0.00, -0.00, -1.00, 526.8, 408.0)">m</text><text xml:space="preserve" font-family="ZapfDingbatsITC" font-size="26.6" fill="#5B86B8" transform="matrix(1.00, 0.00, -0.00, -1.00, 32.0, 319.2)">✤</text><text xml:space="preserve" font-family="Palatino-Roman" font-size="38.0" fill="#000000" transform="matrix(1.00, 0.00, -0.00, -1.00, 72.0, 316.0)">V</text><text xml:space="preserve" font-family="Palatino-Roman" font-size="38.0" fill="#000000" transform="matrix(1.00, 0.00, -0.00, -1.00, 95.2, 316.0)">o</text><text xml:space="preserve" font-family="Palatino-Roman" font-size="38.0" fill="#000000" transform="matrix(1.00, 0.00, -0.00, -1.00, 116.0, 316.0)">i</text><text xml:space="preserve" font-family="Palatino-Roman" font-size="38.0" fill="#000000" transform="matrix(1.00, 0.00, -0.00, -1.00, 127.0, 316.0)">c</text><text xml:space="preserve" font-family="Palatino-Roman" font-size="38.0" fill="#000000" transform="matrix(1.00, 0.00, -0.00, -1.00, 143.9, 316.0)">e</text><text xml:space="preserve" font-family="Palatino-Roman" font-size="38.0" fill="#000000" transform="matrix(1.00, 0.00, -0.00, -1.00, 162.1, 316.0)"> </text><text xml:space="preserve" font-family="Palatino-Roman" font-size="38.0" fill="#000000" transform="matrix(1.00, 0.00, -0.00, -1.00, 171.6, 316.0)">c</text><text xml:space="preserve" font-family="Palatino-Roman" font-size="38.0" fill="#000000" transform="matrix(1.00, 0.00, -0.00, -1.00, 188.5, 316.0)">o</text><text xml:space="preserve" font-family="Palatino-Roman" font-size="38.0" fill="#000000" transform="matrix(1.00, 0.00, -0.00, -1.00, 209.2, 316.0)">m</text><text xml:space="preserve" font-family="Palatino-Roman" font-size="38.0" fill="#000000" transform="matrix(1.00, 0.00, -0.00, -1.00, 242.7, 316.0)">m</text><text xml:space="preserve" font-family="Palatino-Roman" font-size="38.0" fill="#000000" transform="matrix(1.00, 0.00, -0.00, -1.00, 276.3, 316.0)">a</text><text xml:space="preserve" font-family="Palatino-Roman" font-size="38.0" fill="#000000" transform="matrix(1.00, 0.00, -0.00, -1.00, 295.3, 316.0)">n</text><text xml:space="preserve" font-family="Palatino-Roman" font-size="38.0" fill="#000000" transform="matrix(1.00, 0.00, -0.00, -1.00, 317.4, 316.0)">d</text><text xml:space="preserve" font-family="Palatino-Roman" font-size="38.0" fill="#000000" transform="matrix(1.00, 0.00, -0.00, -1.00, 340.6, 316.0)">s</text><text xml:space="preserve" font-family="Palatino-Roman" font-size="38.0" fill="#000000" transform="matrix(1.00, 0.00, -0.00, -1.00, 356.7, 316.0)"> </text><text xml:space="preserve" font-family="Palatino-Roman" font-size="38.0" fill="#000000" transform="matrix(1.00, 0.00, -0.00, -1.00, 366.2, 316.0)">f</text><text xml:space="preserve" font-family="Palatino-Roman" font-size="38.0" fill="#000000" transform="matrix(1.00, 0.00, -0.00, -1.00, 378.8, 316.0)">o</text><text xml:space="preserve" font-family="Palatino-Roman" font-size="38.0" fill="#000000" transform="matrix(1.00, 0.00, -0.00, -1.00, 399.6, 316.0)">r</text><text xml:space="preserve" font-family="Palatino-Roman" font-size="38.0" fill="#000000" transform="matrix(1.00, 0.00, -0.00, -1.00, 414.6, 316.0)"> </text><text xml:space="preserve" font-family="Palatino-Roman" font-size="38.0" fill="#000000" transform="matrix(1.00, 0.00, -0.00, -1.00, 424.1, 316.0)">s</text><text xml:space="preserve" font-family="Palatino-Roman" font-size="38.0" fill="#000000" transform="matrix(1.00, 0.00, -0.00, -1.00, 440.2, 316.0)">i</text><text xml:space="preserve" font-family="Palatino-Roman" font-size="38.0" fill="#000000" transform="matrix(1.00, 0.00, -0.00, -1.00, 451.3, 316.0)">m</text><text xml:space="preserve" font-family="Palatino-Roman" font-size="38.0" fill="#000000" transform="matrix(1.00, 0.00, -0.00, -1.00, 484.8, 316.0)">p</text><text xml:space="preserve" font-family="Palatino-Roman" font-size="38.0" fill="#000000" transform="matrix(1.00, 0.00, -0.00, -1.00, 507.6, 316.0)">l</text><text xml:space="preserve" font-family="Palatino-Roman" font-size="38.0" fill="#000000" transform="matrix(1.00, 0.00, -0.00, -1.00, 518.7, 316.0)">e</text><text xml:space="preserve" font-family="Palatino-Roman" font-size="38.0" fill="#000000" transform="matrix(1.00, 0.00, -0.00, -1.00, 536.9, 316.0)"> </text><text xml:space="preserve" font-family="Palatino-Roman" font-size="38.0" fill="#000000" transform="matrix(1.00, 0.00, -0.00, -1.00, 546.4, 316.0)">i</text><text xml:space="preserve" font-family="Palatino-Roman" font-size="38.0" fill="#000000" transform="matrix(1.00, 0.00, -0.00, -1.00, 557.5, 316.0)">n</text><text xml:space="preserve" font-family="Palatino-Roman" font-size="38.0" fill="#000000" transform="matrix(1.00, 0.00, -0.00, -1.00, 579.6, 316.0)">s</text><text xml:space="preserve" font-family="Palatino-Roman" font-size="38.0" fill="#000000" transform="matrix(1.00, 0.00, -0.00, -1.00, 595.7, 316.0)">t</text><text xml:space="preserve" font-family="Palatino-Roman" font-size="38.0" fill="#000000" transform="matrix(1.00, 0.00, -0.00, -1.00, 608.1, 316.0)">r</text><text xml:space="preserve" font-family="Palatino-Roman" font-size="38.0" fill="#000000" transform="matrix(1.00, 0.00, -0.00, -1.00, 622.8, 316.0)">u</text><text xml:space="preserve" font-family="Palatino-Roman" font-size="38.0" fill="#000000" transform="matrix(1.00, 0.00, -0.00, -1.00, 645.7, 316.0)">c</text><text xml:space="preserve" font-family="Palatino-Roman" font-size="38.0" fill="#000000" transform="matrix(1.00, 0.00, -0.00, -1.00, 662.6, 316.0)">t</text><text xml:space="preserve" font-family="Palatino-Roman" font-size="38.0" fill="#000000" transform="matrix(1.00, 0.00, -0.00, -1.00, 675.0, 316.0)">i</text><text xml:space="preserve" font-family="Palatino-Roman" font-size="38.0" fill="#000000" transform="matrix(1.00, 0.00, -0.00, -1.00, 686.0, 316.0)">o</text><text xml:space="preserve" font-family="Palatino-Roman" font-size="38.0" fill="#000000" transform="matrix(1.00, 0.00, -0.00, -1.00, 706.8, 316.0)">n</text><text xml:space="preserve" font-family="Palatino-Roman" font-size="38.0" fill="#000000" transform="matrix(1.00, 0.00, -0.00, -1.00, 728.9, 316.0)">s</text><text xml:space="preserve" font-family="ZapfDingbatsITC" font-size="26.6" fill="#5B86B8" transform="matrix(1.00, 0.00, -0.00, -1.00, 32.0, 227.2)">✤</text><text xml:space="preserve" font-family="Palatino-Roman" font-size="38.0" fill="#000000" transform="matrix(1.00, 0.00, -0.00, -1.00, 72.0, 224.0)">W</text><text xml:space="preserve" font-family="Palatino-Roman" font-size="38.0" fill="#000000" transform="matrix(1.00, 0.00, -0.00, -1.00, 107.9, 224.0)">i</text><text xml:space="preserve" font-family="Palatino-Roman" font-size="38.0" fill="#000000" transform="matrix(1.00, 0.00, -0.00, -1.00, 119.0, 224.0)">t</text><text xml:space="preserve" font-family="Palatino-Roman" font-size="38.0" fill="#000000" transform="matrix(1.00, 0.00, -0.00, -1.00, 131.4, 224.0)">h</text><text xml:space="preserve" font-family="Palatino-Roman" font-size="38.0" fill="#000000" transform="matrix(1.00, 0.00, -0.00, -1.00, 153.5, 224.0)">o</text><text xml:space="preserve" font-family="Palatino-Roman" font-size="38.0" fill="#000000" transform="matrix(1.00, 0.00, -0.00, -1.00, 174.2, 224.0)">u</text><text xml:space="preserve" font-family="Palatino-Roman" font-size="38.0" fill="#000000" transform="matrix(1.00, 0.00, -0.00, -1.00, 197.2, 224.0)">t</text><text xml:space="preserve" font-family="Palatino-Roman" font-size="38.0" fill="#000000" transform="matrix(1.00, 0.00, -0.00, -1.00, 209.6, 224.0)"> </text><text xml:space="preserve" font-family="Palatino-Roman" font-size="38.0" fill="#000000" transform="matrix(1.00, 0.00, -0.00, -1.00, 219.1, 224.0)">S</text><text xml:space="preserve" font-family="Palatino-Roman" font-size="38.0" fill="#000000" transform="matrix(1.00, 0.00, -0.00, -1.00, 239.0, 224.0)">p</text><text xml:space="preserve" font-family="Palatino-Roman" font-size="38.0" fill="#000000" transform="matrix(1.00, 0.00, -0.00, -1.00, 261.8, 224.0)">e</text><text xml:space="preserve" font-family="Palatino-Roman" font-size="38.0" fill="#000000" transform="matrix(1.00, 0.00, -0.00, -1.00, 280.0, 224.0)">e</text><text xml:space="preserve" font-family="Palatino-Roman" font-size="38.0" fill="#000000" transform="matrix(1.00, 0.00, -0.00, -1.00, 298.2, 224.0)">c</text><text xml:space="preserve" font-family="Palatino-Roman" font-size="38.0" fill="#000000" transform="matrix(1.00, 0.00, -0.00, -1.00, 315.1, 224.0)">h</text><text xml:space="preserve" font-family="Palatino-Roman" font-size="38.0" fill="#000000" transform="matrix(1.00, 0.00, -0.00, -1.00, 337.2, 224.0)"> </text><text xml:space="preserve" font-family="Palatino-Roman" font-size="38.0" fill="#000000" transform="matrix(1.00, 0.00, -0.00, -1.00, 346.7, 224.0)">R</text><text xml:space="preserve" font-family="Palatino-Roman" font-size="38.0" fill="#000000" transform="matrix(1.00, 0.00, -0.00, -1.00, 372.1, 224.0)">e</text><text xml:space="preserve" font-family="Palatino-Roman" font-size="38.0" fill="#000000" transform="matrix(1.00, 0.00, -0.00, -1.00, 390.3, 224.0)">c</text><text xml:space="preserve" font-family="Palatino-Roman" font-size="38.0" fill="#000000" transform="matrix(1.00, 0.00, -0.00, -1.00, 407.2, 224.0)">o</text><text xml:space="preserve" font-family="Palatino-Roman" font-size="38.0" fill="#000000" transform="matrix(1.00, 0.00, -0.00, -1.00, 427.9, 224.0)">g</text><text xml:space="preserve" font-family="Palatino-Roman" font-size="38.0" fill="#000000" transform="matrix(1.00, 0.00, -0.00, -1.00, 449.0, 224.0)">n</text><text xml:space="preserve" font-family="Palatino-Roman" font-size="38.0" fill="#000000" transform="matrix(1.00, 0.00, -0.00, -1.00, 471.2, 224.0)">i</text><text xml:space="preserve" font-family="Palatino-Roman" font-size="38.0" fill="#000000" transform="matrix(1.00, 0.00, -0.00, -1.00, 482.2, 224.0)">t</text><text xml:space="preserve" font-family="Palatino-Roman" font-size="38.0" fill="#000000" transform="matrix(1.00, 0.00, -0.00, -1.00, 494.6, 224.0)">i</text><text xml:space="preserve" font-family="Palatino-Roman" font-size="38.0" fill="#000000" transform="matrix(1.00, 0.00, -0.00, -1.00, 505.7, 224.0)">o</text><text xml:space="preserve" font-family="Palatino-Roman" font-size="38.0" fill="#000000" transform="matrix(1.00, 0.00, -0.00, -1.00, 526.4, 224.0)">n</text><text xml:space="preserve" font-family="Palatino-Roman" font-size="38.0" fill="#000000" transform="matrix(1.00, 0.00, -0.00, -1.00, 548.5, 224.0)"> </text><text xml:space="preserve" font-family="ZapfDingbatsITC" font-size="26.6" fill="#5B86B8" transform="matrix(1.00, 0.00, -0.00, -1.00, 32.0, 135.2)">✤</text><text xml:space="preserve" font-family="Palatino-Roman" font-size="38.0" fill="#000000" transform="matrix(1.00, 0.00, -0.00, -1.00, 72.0, 132.0)">U</text><text xml:space="preserve" font-family="Palatino-Roman" font-size="38.0" fill="#000000" transform="matrix(1.00, 0.00, -0.00, -1.00, 101.6, 132.0)">s</text><text xml:space="preserve" font-family="Palatino-Roman" font-size="38.0" fill="#000000" transform="matrix(1.00, 0.00, -0.00, -1.00, 117.6, 132.0)">e</text><text xml:space="preserve" font-family="Palatino-Roman" font-size="38.0" fill="#000000" transform="matrix(1.00, 0.00, -0.00, -1.00, 135.9, 132.0)">r</text><text xml:space="preserve" font-family="Palatino-Roman" font-size="38.0" fill="#000000" transform="matrix(1.00, 0.00, -0.00, -1.00, 150.2, 132.0)">-</text><text xml:space="preserve" font-family="Palatino-Roman" font-size="38.0" fill="#000000" transform="matrix(1.00, 0.00, -0.00, -1.00, 162.8, 132.0)">d</text><text xml:space="preserve" font-family="Palatino-Roman" font-size="38.0" fill="#000000" transform="matrix(1.00, 0.00, -0.00, -1.00, 186.1, 132.0)">e</text><text xml:space="preserve" font-family="Palatino-Roman" font-size="38.0" fill="#000000" transform="matrix(1.00, 0.00, -0.00, -1.00, 204.3, 132.0)">ﬁ</text><text xml:space="preserve" font-family="Palatino-Roman" font-size="38.0" fill="#000000" transform="matrix(1.00, 0.00, -0.00, -1.00, 227.2, 132.0)">n</text><text xml:space="preserve" font-family="Palatino-Roman" font-size="38.0" fill="#000000" transform="matrix(1.00, 0.00, -0.00, -1.00, 249.4, 132.0)">e</text><text xml:space="preserve" font-family="Palatino-Roman" font-size="38.0" fill="#000000" transform="matrix(1.00, 0.00, -0.00, -1.00, 267.6, 132.0)">d</text><text xml:space="preserve" font-family="Palatino-Roman" font-size="38.0" fill="#000000" transform="matrix(1.00, 0.00, -0.00, -1.00, 290.8, 132.0)"> </text><text xml:space="preserve" font-family="Palatino-Roman" font-size="38.0" fill="#000000" transform="matrix(1.00, 0.00, -0.00, -1.00, 300.3, 132.0)">v</text><text xml:space="preserve" font-family="Palatino-Roman" font-size="38.0" fill="#000000" transform="matrix(1.00, 0.00, -0.00, -1.00, 321.7, 132.0)">o</text><text xml:space="preserve" font-family="Palatino-Roman" font-size="38.0" fill="#000000" transform="matrix(1.00, 0.00, -0.00, -1.00, 342.5, 132.0)">i</text><text xml:space="preserve" font-family="Palatino-Roman" font-size="38.0" fill="#000000" transform="matrix(1.00, 0.00, -0.00, -1.00, 353.5, 132.0)">c</text><text xml:space="preserve" font-family="Palatino-Roman" font-size="38.0" fill="#000000" transform="matrix(1.00, 0.00, -0.00, -1.00, 370.4, 132.0)">e</text><text xml:space="preserve" font-family="Palatino-Roman" font-size="38.0" fill="#000000" transform="matrix(1.00, 0.00, -0.00, -1.00, 388.6, 132.0)"> </text><text xml:space="preserve" font-family="Palatino-Roman" font-size="38.0" fill="#000000" transform="matrix(1.00, 0.00, -0.00, -1.00, 398.1, 132.0)">f</text><text xml:space="preserve" font-family="Palatino-Roman" font-size="38.0" fill="#000000" transform="matrix(1.00, 0.00, -0.00, -1.00, 410.7, 132.0)">o</text><text xml:space="preserve" font-family="Palatino-Roman" font-size="38.0" fill="#000000" transform="matrix(1.00, 0.00, -0.00, -1.00, 431.5, 132.0)">r</text><text xml:space="preserve" font-family="Palatino-Roman" font-size="38.0" fill="#000000" transform="matrix(1.00, 0.00, -0.00, -1.00, 446.5, 132.0)"> </text><text xml:space="preserve" font-family="Palatino-Roman" font-size="38.0" fill="#000000" transform="matrix(1.00, 0.00, -0.00, -1.00, 456.0, 132.0)">i</text><text xml:space="preserve" font-family="Palatino-Roman" font-size="38.0" fill="#000000" transform="matrix(1.00, 0.00, -0.00, -1.00, 467.1, 132.0)">n</text><text xml:space="preserve" font-family="Palatino-Roman" font-size="38.0" fill="#000000" transform="matrix(1.00, 0.00, -0.00, -1.00, 489.2, 132.0)">s</text><text xml:space="preserve" font-family="Palatino-Roman" font-size="38.0" fill="#000000" transform="matrix(1.00, 0.00, -0.00, -1.00, 505.3, 132.0)">t</text><text xml:space="preserve" font-family="Palatino-Roman" font-size="38.0" fill="#000000" transform="matrix(1.00, 0.00, -0.00, -1.00, 517.7, 132.0)">r</text><text xml:space="preserve" font-family="Palatino-Roman" font-size="38.0" fill="#000000" transform="matrix(1.00, 0.00, -0.00, -1.00, 532.4, 132.0)">u</text><text xml:space="preserve" font-family="Palatino-Roman" font-size="38.0" fill="#000000" transform="matrix(1.00, 0.00, -0.00, -1.00, 555.3, 132.0)">c</text><text xml:space="preserve" font-family="Palatino-Roman" font-size="38.0" fill="#000000" transform="matrix(1.00, 0.00, -0.00, -1.00, 572.2, 132.0)">t</text><text xml:space="preserve" font-family="Palatino-Roman" font-size="38.0" fill="#000000" transform="matrix(1.00, 0.00, -0.00, -1.00, 584.6, 132.0)">i</text><text xml:space="preserve" font-family="Palatino-Roman" font-size="38.0" fill="#000000" transform="matrix(1.00, 0.00, -0.00, -1.00, 595.6, 132.0)">o</text><text xml:space="preserve" font-family="Palatino-Roman" font-size="38.0" fill="#000000" transform="matrix(1.00, 0.00, -0.00, -1.00, 616.4, 132.0)">n</text><text xml:space="preserve" font-family="Palatino-Roman" font-size="38.0" fill="#000000" transform="matrix(1.00, 0.00, -0.00, -1.00, 638.5, 132.0)">s</text></g></svg>