<?xml version="1.0" encoding="UTF-8" standalone="no"?><svg xmlns="http://www.w3.org/2000/svg" xmlns:xlink="http://www.w3.org/1999/xlink" clip-rule="evenodd" stroke-miterlimit="4.00" viewBox="0 0 1024 768"><desc>SVG generated by Keynote</desc><defs></defs><g transform="matrix(1.00, 0.00, -0.00, -1.00, 0.0, 768.0)"><g><clipPath id="clip-22"><path d="M 0.0 768.0 L 1024.0 768.0 L 1024.0 0.0 L 0.0 0.0 Z M 0.0 768.0 "></path></clipPath><g clip-path="url(#clip-22)"><image xlink:href="../../8D385DDC-F656-452C-BE3F-ECEED2300590/assets/3FBB98853A833B6E3BBFA0AF677D3F24.jpeg" width="1024.00" height="768.00" transform="matrix(1.00, 0.00, -0.00, -1.00, 0.0, 768.0)"></image></g></g><path d="M 0.0 0.0 L 960.0 0.0 " fill="none" stroke="#7995B9" stroke-width="1.00" transform="matrix(1.00, 0.00, 0.00, -1.00, 32.0, 566.0)"></path><path d="M 0.0 0.0 L 960.0 0.0 " fill="none" stroke="#7995B9" stroke-width="1.00" transform="matrix(1.00, 0.00, 0.00, -1.00, 32.0, 562.0)"></path><text xml:space="preserve" font-family="Didot" font-size="64.0" fill="#304863" transform="matrix(1.00, 0.00, -0.00, -1.00, 32.0, 632.0)">O</text><text xml:space="preserve" font-family="Didot" font-size="64.0" fill="#304863" transform="matrix(1.00, 0.00, -0.00, -1.00, 84.0, 632.0)">p</text><text xml:space="preserve" font-family="Didot" font-size="64.0" fill="#304863" transform="matrix(1.00, 0.00, -0.00, -1.00, 120.6, 632.0)">e</text><text xml:space="preserve" font-family="Didot" font-size="64.0" fill="#304863" transform="matrix(1.00, 0.00, -0.00, -1.00, 151.4, 632.0)">r</text><text xml:space="preserve" font-family="Didot" font-size="64.0" fill="#304863" transform="matrix(1.00, 0.00, -0.00, -1.00, 176.1, 632.0)">a</text><text xml:space="preserve" font-family="Didot" font-size="64.0" fill="#304863" transform="matrix(1.00, 0.00, -0.00, -1.00, 205.6, 632.0)">t</text><text xml:space="preserve" font-family="Didot" font-size="64.0" fill="#304863" transform="matrix(1.00, 0.00, -0.00, -1.00, 225.7, 632.0)">i</text><text xml:space="preserve" font-family="Didot" font-size="64.0" fill="#304863" transform="matrix(1.00, 0.00, -0.00, -1.00, 243.3, 632.0)">o</text><text xml:space="preserve" font-family="Didot" font-size="64.0" fill="#304863" transform="matrix(1.00, 0.00, -0.00, -1.00, 277.6, 632.0)">n</text><text xml:space="preserve" font-family="Didot" font-size="64.0" fill="#304863" transform="matrix(1.00, 0.00, -0.00, -1.00, 315.5, 632.0)"> </text><text xml:space="preserve" font-family="Didot" font-size="64.0" fill="#304863" transform="matrix(1.00, 0.00, -0.00, -1.00, 328.4, 632.0)">A</text><text xml:space="preserve" font-family="Didot" font-size="64.0" fill="#304863" transform="matrix(1.00, 0.00, -0.00, -1.00, 374.6, 632.0)">c</text><text xml:space="preserve" font-family="Didot" font-size="64.0" fill="#304863" transform="matrix(1.00, 0.00, -0.00, -1.00, 404.1, 632.0)">t</text><text xml:space="preserve" font-family="Didot" font-size="64.0" fill="#304863" transform="matrix(1.00, 0.00, -0.00, -1.00, 424.1, 632.0)">o</text><text xml:space="preserve" font-family="Didot" font-size="64.0" fill="#304863" transform="matrix(1.00, 0.00, -0.00, -1.00, 458.4, 632.0)">r</text><text xml:space="preserve" font-family="ZapfDingbatsITC" font-size="26.6" fill="#5B86B8" transform="matrix(1.00, 0.00, -0.00, -1.00, 32.0, 415.2)">✤</text><text xml:space="preserve" font-family="Palatino-Roman" font-size="38.0" fill="#000000" transform="matrix(1.00, 0.00, -0.00, -1.00, 72.0, 412.0)">a</text><text xml:space="preserve" font-family="Palatino-Roman" font-size="38.0" fill="#000000" transform="matrix(1.00, 0.00, -0.00, -1.00, 91.0, 412.0)">c</text><text xml:space="preserve" font-family="Palatino-Roman" font-size="38.0" fill="#000000" transform="matrix(1.00, 0.00, -0.00, -1.00, 107.9, 412.0)">c</text><text xml:space="preserve" font-family="Palatino-Roman" font-size="38.0" fill="#000000" transform="matrix(1.00, 0.00, -0.00, -1.00, 124.7, 412.0)">e</text><text xml:space="preserve" font-family="Palatino-Roman" font-size="38.0" fill="#000000" transform="matrix(1.00, 0.00, -0.00, -1.00, 142.9, 412.0)">p</text><text xml:space="preserve" font-family="Palatino-Roman" font-size="38.0" fill="#000000" transform="matrix(1.00, 0.00, -0.00, -1.00, 165.8, 412.0)">t</text><text xml:space="preserve" font-family="Palatino-Roman" font-size="38.0" fill="#000000" transform="matrix(1.00, 0.00, -0.00, -1.00, 178.2, 412.0)"> </text><text xml:space="preserve" font-family="Palatino-Roman" font-size="38.0" fill="#000000" transform="matrix(1.00, 0.00, -0.00, -1.00, 187.7, 412.0)">i</text><text xml:space="preserve" font-family="Palatino-Roman" font-size="38.0" fill="#000000" transform="matrix(1.00, 0.00, -0.00, -1.00, 198.7, 412.0)">n</text><text xml:space="preserve" font-family="Palatino-Roman" font-size="38.0" fill="#000000" transform="matrix(1.00, 0.00, -0.00, -1.00, 220.8, 412.0)">s</text><text xml:space="preserve" font-family="Palatino-Roman" font-size="38.0" fill="#000000" transform="matrix(1.00, 0.00, -0.00, -1.00, 236.9, 412.0)">t</text><text xml:space="preserve" font-family="Palatino-Roman" font-size="38.0" fill="#000000" transform="matrix(1.00, 0.00, -0.00, -1.00, 249.3, 412.0)">r</text><text xml:space="preserve" font-family="Palatino-Roman" font-size="38.0" fill="#000000" transform="matrix(1.00, 0.00, -0.00, -1.00, 264.1, 412.0)">u</text><text xml:space="preserve" font-family="Palatino-Roman" font-size="38.0" fill="#000000" transform="matrix(1.00, 0.00, -0.00, -1.00, 287.0, 412.0)">c</text><text xml:space="preserve" font-family="Palatino-Roman" font-size="38.0" fill="#000000" transform="matrix(1.00, 0.00, -0.00, -1.00, 303.8, 412.0)">t</text><text xml:space="preserve" font-family="Palatino-Roman" font-size="38.0" fill="#000000" transform="matrix(1.00, 0.00, -0.00, -1.00, 316.2, 412.0)">i</text><text xml:space="preserve" font-family="Palatino-Roman" font-size="38.0" fill="#000000" transform="matrix(1.00, 0.00, -0.00, -1.00, 327.3, 412.0)">o</text><text xml:space="preserve" font-family="Palatino-Roman" font-size="38.0" fill="#000000" transform="matrix(1.00, 0.00, -0.00, -1.00, 348.0, 412.0)">n</text><text xml:space="preserve" font-family="Palatino-Roman" font-size="38.0" fill="#000000" transform="matrix(1.00, 0.00, -0.00, -1.00, 370.1, 412.0)">s</text><text xml:space="preserve" font-family="Palatino-Roman" font-size="38.0" fill="#000000" transform="matrix(1.00, 0.00, -0.00, -1.00, 386.2, 412.0)"> </text><text xml:space="preserve" font-family="Palatino-Roman" font-size="38.0" fill="#000000" transform="matrix(1.00, 0.00, -0.00, -1.00, 395.7, 412.0)">a</text><text xml:space="preserve" font-family="Palatino-Roman" font-size="38.0" fill="#000000" transform="matrix(1.00, 0.00, -0.00, -1.00, 414.7, 412.0)">n</text><text xml:space="preserve" font-family="Palatino-Roman" font-size="38.0" fill="#000000" transform="matrix(1.00, 0.00, -0.00, -1.00, 436.9, 412.0)">d</text><text xml:space="preserve" font-family="Palatino-Roman" font-size="38.0" fill="#000000" transform="matrix(1.00, 0.00, -0.00, -1.00, 460.1, 412.0)"> </text><text xml:space="preserve" font-family="Palatino-Roman" font-size="38.0" fill="#000000" transform="matrix(1.00, 0.00, -0.00, -1.00, 469.6, 412.0)">h</text><text xml:space="preserve" font-family="Palatino-Roman" font-size="38.0" fill="#000000" transform="matrix(1.00, 0.00, -0.00, -1.00, 491.7, 412.0)">a</text><text xml:space="preserve" font-family="Palatino-Roman" font-size="38.0" fill="#000000" transform="matrix(1.00, 0.00, -0.00, -1.00, 510.7, 412.0)">v</text><text xml:space="preserve" font-family="Palatino-Roman" font-size="38.0" fill="#000000" transform="matrix(1.00, 0.00, -0.00, -1.00, 532.1, 412.0)">e</text><text xml:space="preserve" font-family="Palatino-Roman" font-size="38.0" fill="#000000" transform="matrix(1.00, 0.00, -0.00, -1.00, 550.4, 412.0)"> </text><text xml:space="preserve" font-family="Palatino-Roman" font-size="38.0" fill="#000000" transform="matrix(1.00, 0.00, -0.00, -1.00, 559.9, 412.0)">c</text><text xml:space="preserve" font-family="Palatino-Roman" font-size="38.0" fill="#000000" transform="matrix(1.00, 0.00, -0.00, -1.00, 576.7, 412.0)">o</text><text xml:space="preserve" font-family="Palatino-Roman" font-size="38.0" fill="#000000" transform="matrix(1.00, 0.00, -0.00, -1.00, 597.4, 412.0)">r</text><text xml:space="preserve" font-family="Palatino-Roman" font-size="38.0" fill="#000000" transform="matrix(1.00, 0.00, -0.00, -1.00, 612.5, 412.0)">r</text><text xml:space="preserve" font-family="Palatino-Roman" font-size="38.0" fill="#000000" transform="matrix(1.00, 0.00, -0.00, -1.00, 626.8, 412.0)">e</text><text xml:space="preserve" font-family="Palatino-Roman" font-size="38.0" fill="#000000" transform="matrix(1.00, 0.00, -0.00, -1.00, 645.0, 412.0)">s</text><text xml:space="preserve" font-family="Palatino-Roman" font-size="38.0" fill="#000000" transform="matrix(1.00, 0.00, -0.00, -1.00, 661.1, 412.0)">p</text><text xml:space="preserve" font-family="Palatino-Roman" font-size="38.0" fill="#000000" transform="matrix(1.00, 0.00, -0.00, -1.00, 683.9, 412.0)">o</text><text xml:space="preserve" font-family="Palatino-Roman" font-size="38.0" fill="#000000" transform="matrix(1.00, 0.00, -0.00, -1.00, 704.7, 412.0)">n</text><text xml:space="preserve" font-family="Palatino-Roman" font-size="38.0" fill="#000000" transform="matrix(1.00, 0.00, -0.00, -1.00, 726.8, 412.0)">d</text><text xml:space="preserve" font-family="Palatino-Roman" font-size="38.0" fill="#000000" transform="matrix(1.00, 0.00, -0.00, -1.00, 750.0, 412.0)">i</text><text xml:space="preserve" font-family="Palatino-Roman" font-size="38.0" fill="#000000" transform="matrix(1.00, 0.00, -0.00, -1.00, 761.1, 412.0)">n</text><text xml:space="preserve" font-family="Palatino-Roman" font-size="38.0" fill="#000000" transform="matrix(1.00, 0.00, -0.00, -1.00, 783.2, 412.0)">g</text><text xml:space="preserve" font-family="Palatino-Roman" font-size="38.0" fill="#000000" transform="matrix(1.00, 0.00, -0.00, -1.00, 804.3, 412.0)"> </text><text xml:space="preserve" font-family="Palatino-Roman" font-size="38.0" fill="#000000" transform="matrix(1.00, 0.00, -0.00, -1.00, 813.8, 412.0)">r</text><text xml:space="preserve" font-family="Palatino-Roman" font-size="38.0" fill="#000000" transform="matrix(1.00, 0.00, -0.00, -1.00, 828.2, 412.0)">e</text><text xml:space="preserve" font-family="Palatino-Roman" font-size="38.0" fill="#000000" transform="matrix(1.00, 0.00, -0.00, -1.00, 846.4, 412.0)">s</text><text xml:space="preserve" font-family="Palatino-Roman" font-size="38.0" fill="#000000" transform="matrix(1.00, 0.00, -0.00, -1.00, 862.5, 412.0)">p</text><text xml:space="preserve" font-family="Palatino-Roman" font-size="38.0" fill="#000000" transform="matrix(1.00, 0.00, -0.00, -1.00, 885.3, 412.0)">o</text><text xml:space="preserve" font-family="Palatino-Roman" font-size="38.0" fill="#000000" transform="matrix(1.00, 0.00, -0.00, -1.00, 906.1, 412.0)">n</text><text xml:space="preserve" font-family="Palatino-Roman" font-size="38.0" fill="#000000" transform="matrix(1.00, 0.00, -0.00, -1.00, 928.2, 412.0)">s</text><text xml:space="preserve" font-family="Palatino-Roman" font-size="38.0" fill="#000000" transform="matrix(1.00, 0.00, -0.00, -1.00, 944.3, 412.0)">e</text><text xml:space="preserve" font-family="ZapfDingbatsITC" font-size="26.6" fill="#5B86B8" transform="matrix(1.00, 0.00, -0.00, -1.00, 32.0, 323.2)">✤</text><text xml:space="preserve" font-family="Palatino-Roman" font-size="38.0" fill="#000000" transform="matrix(1.00, 0.00, -0.00, -1.00, 72.0, 320.0)">u</text><text xml:space="preserve" font-family="Palatino-Roman" font-size="38.0" fill="#000000" transform="matrix(1.00, 0.00, -0.00, -1.00, 94.9, 320.0)">s</text><text xml:space="preserve" font-family="Palatino-Roman" font-size="38.0" fill="#000000" transform="matrix(1.00, 0.00, -0.00, -1.00, 111.0, 320.0)">e</text><text xml:space="preserve" font-family="Palatino-Roman" font-size="38.0" fill="#000000" transform="matrix(1.00, 0.00, -0.00, -1.00, 129.2, 320.0)"> </text><text xml:space="preserve" font-family="Palatino-Roman" font-size="38.0" fill="#000000" transform="matrix(1.00, 0.00, -0.00, -1.00, 138.7, 320.0)">k</text><text xml:space="preserve" font-family="Palatino-Roman" font-size="38.0" fill="#000000" transform="matrix(1.00, 0.00, -0.00, -1.00, 159.9, 320.0)">e</text><text xml:space="preserve" font-family="Palatino-Roman" font-size="38.0" fill="#000000" transform="matrix(1.00, 0.00, -0.00, -1.00, 178.1, 320.0)">y</text><text xml:space="preserve" font-family="Palatino-Roman" font-size="38.0" fill="#000000" transform="matrix(1.00, 0.00, -0.00, -1.00, 199.2, 320.0)">b</text><text xml:space="preserve" font-family="Palatino-Roman" font-size="38.0" fill="#000000" transform="matrix(1.00, 0.00, -0.00, -1.00, 220.2, 320.0)">o</text><text xml:space="preserve" font-family="Palatino-Roman" font-size="38.0" fill="#000000" transform="matrix(1.00, 0.00, -0.00, -1.00, 241.0, 320.0)">a</text><text xml:space="preserve" font-family="Palatino-Roman" font-size="38.0" fill="#000000" transform="matrix(1.00, 0.00, -0.00, -1.00, 260.0, 320.0)">r</text><text xml:space="preserve" font-family="Palatino-Roman" font-size="38.0" fill="#000000" transform="matrix(1.00, 0.00, -0.00, -1.00, 274.3, 320.0)">d</text><text xml:space="preserve" font-family="Palatino-Roman" font-size="38.0" fill="#000000" transform="matrix(1.00, 0.00, -0.00, -1.00, 297.5, 320.0)"> </text><text xml:space="preserve" font-family="Palatino-Roman" font-size="38.0" fill="#000000" transform="matrix(1.00, 0.00, -0.00, -1.00, 307.0, 320.0)">a</text><text xml:space="preserve" font-family="Palatino-Roman" font-size="38.0" fill="#000000" transform="matrix(1.00, 0.00, -0.00, -1.00, 326.0, 320.0)">n</text><text xml:space="preserve" font-family="Palatino-Roman" font-size="38.0" fill="#000000" transform="matrix(1.00, 0.00, -0.00, -1.00, 348.1, 320.0)">d</text><text xml:space="preserve" font-family="Palatino-Roman" font-size="38.0" fill="#000000" transform="matrix(1.00, 0.00, -0.00, -1.00, 371.3, 320.0)"> </text><text xml:space="preserve" font-family="Palatino-Roman" font-size="38.0" fill="#000000" transform="matrix(1.00, 0.00, -0.00, -1.00, 380.8, 320.0)">m</text><text xml:space="preserve" font-family="Palatino-Roman" font-size="38.0" fill="#000000" transform="matrix(1.00, 0.00, -0.00, -1.00, 414.4, 320.0)">o</text><text xml:space="preserve" font-family="Palatino-Roman" font-size="38.0" fill="#000000" transform="matrix(1.00, 0.00, -0.00, -1.00, 435.1, 320.0)">u</text><text xml:space="preserve" font-family="Palatino-Roman" font-size="38.0" fill="#000000" transform="matrix(1.00, 0.00, -0.00, -1.00, 458.0, 320.0)">s</text><text xml:space="preserve" font-family="Palatino-Roman" font-size="38.0" fill="#000000" transform="matrix(1.00, 0.00, -0.00, -1.00, 474.1, 320.0)">e</text><text xml:space="preserve" font-family="Palatino-Roman" font-size="38.0" fill="#000000" transform="matrix(1.00, 0.00, -0.00, -1.00, 492.3, 320.0)"> </text><text xml:space="preserve" font-family="Palatino-Roman" font-size="38.0" fill="#000000" transform="matrix(1.00, 0.00, -0.00, -1.00, 501.8, 320.0)">c</text><text xml:space="preserve" font-family="Palatino-Roman" font-size="38.0" fill="#000000" transform="matrix(1.00, 0.00, -0.00, -1.00, 518.7, 320.0)">o</text><text xml:space="preserve" font-family="Palatino-Roman" font-size="38.0" fill="#000000" transform="matrix(1.00, 0.00, -0.00, -1.00, 539.4, 320.0)">n</text><text xml:space="preserve" font-family="Palatino-Roman" font-size="38.0" fill="#000000" transform="matrix(1.00, 0.00, -0.00, -1.00, 561.5, 320.0)">t</text><text xml:space="preserve" font-family="Palatino-Roman" font-size="38.0" fill="#000000" transform="matrix(1.00, 0.00, -0.00, -1.00, 574.0, 320.0)">r</text><text xml:space="preserve" font-family="Palatino-Roman" font-size="38.0" fill="#000000" transform="matrix(1.00, 0.00, -0.00, -1.00, 588.3, 320.0)">o</text><text xml:space="preserve" font-family="Palatino-Roman" font-size="38.0" fill="#000000" transform="matrix(1.00, 0.00, -0.00, -1.00, 609.0, 320.0)">l</text><text xml:space="preserve" font-family="Palatino-Roman" font-size="38.0" fill="#000000" transform="matrix(1.00, 0.00, -0.00, -1.00, 620.1, 320.0)"> </text><text xml:space="preserve" font-family="Palatino-Roman" font-size="38.0" fill="#000000" transform="matrix(1.00, 0.00, -0.00, -1.00, 628.2, 320.0)">A</text><text xml:space="preserve" font-family="Palatino-Roman" font-size="38.0" fill="#000000" transform="matrix(1.00, 0.00, -0.00, -1.00, 657.8, 320.0)">P</text><text xml:space="preserve" font-family="Palatino-Roman" font-size="38.0" fill="#000000" transform="matrix(1.00, 0.00, -0.00, -1.00, 680.7, 320.0)">I</text><text xml:space="preserve" font-family="ZapfDingbatsITC" font-size="26.6" fill="#5B86B8" transform="matrix(1.00, 0.00, -0.00, -1.00, 32.0, 231.2)">✤</text><text xml:space="preserve" font-family="Palatino-Roman" font-size="38.0" fill="#000000" transform="matrix(1.00, 0.00, -0.00, -1.00, 72.0, 228.0)">s</text><text xml:space="preserve" font-family="Palatino-Roman" font-size="38.0" fill="#000000" transform="matrix(1.00, 0.00, -0.00, -1.00, 88.1, 228.0)">o</text><text xml:space="preserve" font-family="Palatino-Roman" font-size="38.0" fill="#000000" transform="matrix(1.00, 0.00, -0.00, -1.00, 108.8, 228.0)">m</text><text xml:space="preserve" font-family="Palatino-Roman" font-size="38.0" fill="#000000" transform="matrix(1.00, 0.00, -0.00, -1.00, 142.4, 228.0)">e</text><text xml:space="preserve" font-family="Palatino-Roman" font-size="38.0" fill="#000000" transform="matrix(1.00, 0.00, -0.00, -1.00, 160.6, 228.0)"> </text><text xml:space="preserve" font-family="Palatino-Roman" font-size="38.0" fill="#000000" transform="matrix(1.00, 0.00, -0.00, -1.00, 170.1, 228.0)">d</text><text xml:space="preserve" font-family="Palatino-Roman" font-size="38.0" fill="#000000" transform="matrix(1.00, 0.00, -0.00, -1.00, 193.3, 228.0)">e</text><text xml:space="preserve" font-family="Palatino-Roman" font-size="38.0" fill="#000000" transform="matrix(1.00, 0.00, -0.00, -1.00, 211.5, 228.0)">f</text><text xml:space="preserve" font-family="Palatino-Roman" font-size="38.0" fill="#000000" transform="matrix(1.00, 0.00, -0.00, -1.00, 224.1, 228.0)">a</text><text xml:space="preserve" font-family="Palatino-Roman" font-size="38.0" fill="#000000" transform="matrix(1.00, 0.00, -0.00, -1.00, 243.1, 228.0)">u</text><text xml:space="preserve" font-family="Palatino-Roman" font-size="38.0" fill="#000000" transform="matrix(1.00, 0.00, -0.00, -1.00, 266.1, 228.0)">l</text><text xml:space="preserve" font-family="Palatino-Roman" font-size="38.0" fill="#000000" transform="matrix(1.00, 0.00, -0.00, -1.00, 277.1, 228.0)">t</text><text xml:space="preserve" font-family="Palatino-Roman" font-size="38.0" fill="#000000" transform="matrix(1.00, 0.00, -0.00, -1.00, 289.5, 228.0)"> </text><text xml:space="preserve" font-family="Palatino-Roman" font-size="38.0" fill="#000000" transform="matrix(1.00, 0.00, -0.00, -1.00, 299.0, 228.0)">a</text><text xml:space="preserve" font-family="Palatino-Roman" font-size="38.0" fill="#000000" transform="matrix(1.00, 0.00, -0.00, -1.00, 318.0, 228.0)">c</text><text xml:space="preserve" font-family="Palatino-Roman" font-size="38.0" fill="#000000" transform="matrix(1.00, 0.00, -0.00, -1.00, 334.9, 228.0)">t</text><text xml:space="preserve" font-family="Palatino-Roman" font-size="38.0" fill="#000000" transform="matrix(1.00, 0.00, -0.00, -1.00, 347.3, 228.0)">i</text><text xml:space="preserve" font-family="Palatino-Roman" font-size="38.0" fill="#000000" transform="matrix(1.00, 0.00, -0.00, -1.00, 358.3, 228.0)">o</text><text xml:space="preserve" font-family="Palatino-Roman" font-size="38.0" fill="#000000" transform="matrix(1.00, 0.00, -0.00, -1.00, 379.1, 228.0)">n</text><text xml:space="preserve" font-family="Palatino-Roman" font-size="38.0" fill="#000000" transform="matrix(1.00, 0.00, -0.00, -1.00, 401.2, 228.0)">s</text><text xml:space="preserve" font-family="Palatino-Roman" font-size="38.0" fill="#000000" transform="matrix(1.00, 0.00, -0.00, -1.00, 417.3, 228.0)">:</text><text xml:space="preserve" font-family="Palatino-Roman" font-size="38.0" fill="#000000" transform="matrix(1.00, 0.00, -0.00, -1.00, 426.8, 228.0)"> </text><text xml:space="preserve" font-family="Palatino-Roman" font-size="38.0" fill="#000000" transform="matrix(1.00, 0.00, -0.00, -1.00, 436.3, 228.0)">o</text><text xml:space="preserve" font-family="Palatino-Roman" font-size="38.0" fill="#000000" transform="matrix(1.00, 0.00, -0.00, -1.00, 457.0, 228.0)">p</text><text xml:space="preserve" font-family="Palatino-Roman" font-size="38.0" fill="#000000" transform="matrix(1.00, 0.00, -0.00, -1.00, 479.9, 228.0)">e</text><text xml:space="preserve" font-family="Palatino-Roman" font-size="38.0" fill="#000000" transform="matrix(1.00, 0.00, -0.00, -1.00, 498.1, 228.0)">n</text><text xml:space="preserve" font-family="Palatino-Roman" font-size="38.0" fill="#000000" transform="matrix(1.00, 0.00, -0.00, -1.00, 520.2, 228.0)">,</text><text xml:space="preserve" font-family="Palatino-Roman" font-size="38.0" fill="#000000" transform="matrix(1.00, 0.00, -0.00, -1.00, 529.7, 228.0)"> </text><text xml:space="preserve" font-family="Palatino-Roman" font-size="38.0" fill="#000000" transform="matrix(1.00, 0.00, -0.00, -1.00, 539.2, 228.0)">k</text><text xml:space="preserve" font-family="Palatino-Roman" font-size="38.0" fill="#000000" transform="matrix(1.00, 0.00, -0.00, -1.00, 560.3, 228.0)">i</text><text xml:space="preserve" font-family="Palatino-Roman" font-size="38.0" fill="#000000" transform="matrix(1.00, 0.00, -0.00, -1.00, 571.4, 228.0)">l</text><text xml:space="preserve" font-family="Palatino-Roman" font-size="38.0" fill="#000000" transform="matrix(1.00, 0.00, -0.00, -1.00, 582.5, 228.0)">l</text><text xml:space="preserve" font-family="Palatino-Roman" font-size="38.0" fill="#000000" transform="matrix(1.00, 0.00, -0.00, -1.00, 593.5, 228.0)">,</text><text xml:space="preserve" font-family="Palatino-Roman" font-size="38.0" fill="#000000" transform="matrix(1.00, 0.00, -0.00, -1.00, 603.0, 228.0)"> </text><text xml:space="preserve" font-family="Palatino-Roman" font-size="38.0" fill="#000000" transform="matrix(1.00, 0.00, -0.00, -1.00, 612.5, 228.0)">s</text><text xml:space="preserve" font-family="Palatino-Roman" font-size="38.0" fill="#000000" transform="matrix(1.00, 0.00, -0.00, -1.00, 628.6, 228.0)">w</text><text xml:space="preserve" font-family="Palatino-Roman" font-size="38.0" fill="#000000" transform="matrix(1.00, 0.00, -0.00, -1.00, 660.3, 228.0)">i</text><text xml:space="preserve" font-family="Palatino-Roman" font-size="38.0" fill="#000000" transform="matrix(1.00, 0.00, -0.00, -1.00, 671.4, 228.0)">t</text><text xml:space="preserve" font-family="Palatino-Roman" font-size="38.0" fill="#000000" transform="matrix(1.00, 0.00, -0.00, -1.00, 683.8, 228.0)">c</text><text xml:space="preserve" font-family="Palatino-Roman" font-size="38.0" fill="#000000" transform="matrix(1.00, 0.00, -0.00, -1.00, 700.6, 228.0)">h</text><text xml:space="preserve" font-family="Palatino-Roman" font-size="38.0" fill="#000000" transform="matrix(1.00, 0.00, -0.00, -1.00, 722.7, 228.0)">D</text><text xml:space="preserve" font-family="Palatino-Roman" font-size="38.0" fill="#000000" transform="matrix(1.00, 0.00, -0.00, -1.00, 752.1, 228.0)">e</text><text xml:space="preserve" font-family="Palatino-Roman" font-size="38.0" fill="#000000" transform="matrix(1.00, 0.00, -0.00, -1.00, 770.3, 228.0)">s</text><text xml:space="preserve" font-family="Palatino-Roman" font-size="38.0" fill="#000000" transform="matrix(1.00, 0.00, -0.00, -1.00, 786.4, 228.0)">k</text><text xml:space="preserve" font-family="Palatino-Roman" font-size="38.0" fill="#000000" transform="matrix(1.00, 0.00, -0.00, -1.00, 807.6, 228.0)">t</text><text xml:space="preserve" font-family="Palatino-Roman" font-size="38.0" fill="#000000" transform="matrix(1.00, 0.00, -0.00, -1.00, 820.0, 228.0)">o</text><text xml:space="preserve" font-family="Palatino-Roman" font-size="38.0" fill="#000000" transform="matrix(1.00, 0.00, -0.00, -1.00, 840.7, 228.0)">p</text><text xml:space="preserve" font-family="Palatino-Roman" font-size="38.0" fill="#000000" transform="matrix(1.00, 0.00, -0.00, -1.00, 863.6, 228.0)">,</text><text xml:space="preserve" font-family="Palatino-Roman" font-size="38.0" fill="#000000" transform="matrix(1.00, 0.00, -0.00, -1.00, 873.1, 228.0)"> </text><text xml:space="preserve" font-family="Palatino-Roman" font-size="38.0" fill="#000000" transform="matrix(1.00, 0.00, -0.00, -1.00, 72.0, 178.0)">s</text><text xml:space="preserve" font-family="Palatino-Roman" font-size="38.0" fill="#000000" transform="matrix(1.00, 0.00, -0.00, -1.00, 88.1, 178.0)">w</text><text xml:space="preserve" font-family="Palatino-Roman" font-size="38.0" fill="#000000" transform="matrix(1.00, 0.00, -0.00, -1.00, 119.8, 178.0)">i</text><text xml:space="preserve" font-family="Palatino-Roman" font-size="38.0" fill="#000000" transform="matrix(1.00, 0.00, -0.00, -1.00, 130.8, 178.0)">t</text><text xml:space="preserve" font-family="Palatino-Roman" font-size="38.0" fill="#000000" transform="matrix(1.00, 0.00, -0.00, -1.00, 143.2, 178.0)">c</text><text xml:space="preserve" font-family="Palatino-Roman" font-size="38.0" fill="#000000" transform="matrix(1.00, 0.00, -0.00, -1.00, 160.1, 178.0)">h</text><text xml:space="preserve" font-family="Palatino-Roman" font-size="38.0" fill="#000000" transform="matrix(1.00, 0.00, -0.00, -1.00, 182.2, 178.0)">W</text><text xml:space="preserve" font-family="Palatino-Roman" font-size="38.0" fill="#000000" transform="matrix(1.00, 0.00, -0.00, -1.00, 218.1, 178.0)">i</text><text xml:space="preserve" font-family="Palatino-Roman" font-size="38.0" fill="#000000" transform="matrix(1.00, 0.00, -0.00, -1.00, 229.2, 178.0)">n</text><text xml:space="preserve" font-family="Palatino-Roman" font-size="38.0" fill="#000000" transform="matrix(1.00, 0.00, -0.00, -1.00, 251.3, 178.0)">d</text><text xml:space="preserve" font-family="Palatino-Roman" font-size="38.0" fill="#000000" transform="matrix(1.00, 0.00, -0.00, -1.00, 274.5, 178.0)">o</text><text xml:space="preserve" font-family="Palatino-Roman" font-size="38.0" fill="#000000" transform="matrix(1.00, 0.00, -0.00, -1.00, 295.3, 178.0)">w</text><text xml:space="preserve" font-family="Palatino-Roman" font-size="38.0" fill="#000000" transform="matrix(1.00, 0.00, -0.00, -1.00, 323.5, 178.0)">,</text><text xml:space="preserve" font-family="Palatino-Roman" font-size="38.0" fill="#000000" transform="matrix(1.00, 0.00, -0.00, -1.00, 333.0, 178.0)"> </text><text xml:space="preserve" font-family="Palatino-Roman" font-size="38.0" fill="#000000" transform="matrix(1.00, 0.00, -0.00, -1.00, 342.5, 178.0)">s</text><text xml:space="preserve" font-family="Palatino-Roman" font-size="38.0" fill="#000000" transform="matrix(1.00, 0.00, -0.00, -1.00, 358.6, 178.0)">w</text><text xml:space="preserve" font-family="Palatino-Roman" font-size="38.0" fill="#000000" transform="matrix(1.00, 0.00, -0.00, -1.00, 390.3, 178.0)">i</text><text xml:space="preserve" font-family="Palatino-Roman" font-size="38.0" fill="#000000" transform="matrix(1.00, 0.00, -0.00, -1.00, 401.3, 178.0)">t</text><text xml:space="preserve" font-family="Palatino-Roman" font-size="38.0" fill="#000000" transform="matrix(1.00, 0.00, -0.00, -1.00, 413.7, 178.0)">c</text><text xml:space="preserve" font-family="Palatino-Roman" font-size="38.0" fill="#000000" transform="matrix(1.00, 0.00, -0.00, -1.00, 430.6, 178.0)">h</text><text xml:space="preserve" font-family="Palatino-Roman" font-size="38.0" fill="#000000" transform="matrix(1.00, 0.00, -0.00, -1.00, 452.7, 178.0)">T</text><text xml:space="preserve" font-family="Palatino-Roman" font-size="38.0" fill="#000000" transform="matrix(1.00, 0.00, -0.00, -1.00, 472.5, 178.0)">a</text><text xml:space="preserve" font-family="Palatino-Roman" font-size="38.0" fill="#000000" transform="matrix(1.00, 0.00, -0.00, -1.00, 491.5, 178.0)">b</text><text xml:space="preserve" font-family="Palatino-Roman" font-size="38.0" fill="#000000" transform="matrix(1.00, 0.00, -0.00, -1.00, 512.5, 178.0)">W</text><text xml:space="preserve" font-family="Palatino-Roman" font-size="38.0" fill="#000000" transform="matrix(1.00, 0.00, -0.00, -1.00, 548.4, 178.0)">i</text><text xml:space="preserve" font-family="Palatino-Roman" font-size="38.0" fill="#000000" transform="matrix(1.00, 0.00, -0.00, -1.00, 559.5, 178.0)">n</text><text xml:space="preserve" font-family="Palatino-Roman" font-size="38.0" fill="#000000" transform="matrix(1.00, 0.00, -0.00, -1.00, 581.6, 178.0)">d</text><text xml:space="preserve" font-family="Palatino-Roman" font-size="38.0" fill="#000000" transform="matrix(1.00, 0.00, -0.00, -1.00, 604.8, 178.0)">o</text><text xml:space="preserve" font-family="Palatino-Roman" font-size="38.0" fill="#000000" transform="matrix(1.00, 0.00, -0.00, -1.00, 625.6, 178.0)">w</text><text xml:space="preserve" font-family="Palatino-Roman" font-size="38.0" fill="#000000" transform="matrix(1.00, 0.00, -0.00, -1.00, 653.8, 178.0)">,</text><text xml:space="preserve" font-family="Palatino-Roman" font-size="38.0" fill="#000000" transform="matrix(1.00, 0.00, -0.00, -1.00, 663.3, 178.0)"> </text><text xml:space="preserve" font-family="Palatino-Roman" font-size="38.0" fill="#000000" transform="matrix(1.00, 0.00, -0.00, -1.00, 672.8, 178.0)">m</text><text xml:space="preserve" font-family="Palatino-Roman" font-size="38.0" fill="#000000" transform="matrix(1.00, 0.00, -0.00, -1.00, 706.3, 178.0)">u</text><text xml:space="preserve" font-family="Palatino-Roman" font-size="38.0" fill="#000000" transform="matrix(1.00, 0.00, -0.00, -1.00, 729.2, 178.0)">s</text><text xml:space="preserve" font-family="Palatino-Roman" font-size="38.0" fill="#000000" transform="matrix(1.00, 0.00, -0.00, -1.00, 745.3, 178.0)">i</text><text xml:space="preserve" font-family="Palatino-Roman" font-size="38.0" fill="#000000" transform="matrix(1.00, 0.00, -0.00, -1.00, 756.4, 178.0)">c</text><text xml:space="preserve" font-family="Palatino-Roman" font-size="38.0" fill="#000000" transform="matrix(1.00, 0.00, -0.00, -1.00, 773.2, 178.0)"> </text><text xml:space="preserve" font-family="Palatino-Roman" font-size="38.0" fill="#000000" transform="matrix(1.00, 0.00, -0.00, -1.00, 782.7, 178.0)">c</text><text xml:space="preserve" font-family="Palatino-Roman" font-size="38.0" fill="#000000" transform="matrix(1.00, 0.00, -0.00, -1.00, 799.6, 178.0)">o</text><text xml:space="preserve" font-family="Palatino-Roman" font-size="38.0" fill="#000000" transform="matrix(1.00, 0.00, -0.00, -1.00, 820.3, 178.0)">n</text><text xml:space="preserve" font-family="Palatino-Roman" font-size="38.0" fill="#000000" transform="matrix(1.00, 0.00, -0.00, -1.00, 842.4, 178.0)">t</text><text xml:space="preserve" font-family="Palatino-Roman" font-size="38.0" fill="#000000" transform="matrix(1.00, 0.00, -0.00, -1.00, 854.8, 178.0)">r</text><text xml:space="preserve" font-family="Palatino-Roman" font-size="38.0" fill="#000000" transform="matrix(1.00, 0.00, -0.00, -1.00, 869.2, 178.0)">o</text><text xml:space="preserve" font-family="Palatino-Roman" font-size="38.0" fill="#000000" transform="matrix(1.00, 0.00, -0.00, -1.00, 889.9, 178.0)">l</text><text xml:space="preserve" font-family="Palatino-Roman" font-size="38.0" fill="#000000" transform="matrix(1.00, 0.00, -0.00, -1.00, 901.0, 178.0)">,</text><text xml:space="preserve" font-family="Palatino-Roman" font-size="38.0" fill="#000000" transform="matrix(1.00, 0.00, -0.00, -1.00, 910.5, 178.0)"> </text><text xml:space="preserve" font-family="Palatino-Roman" font-size="38.0" fill="#000000" transform="matrix(1.00, 0.00, -0.00, -1.00, 72.0, 128.0)">o</text><text xml:space="preserve" font-family="Palatino-Roman" font-size="38.0" fill="#000000" transform="matrix(1.00, 0.00, -0.00, -1.00, 92.7, 128.0)">p</text><text xml:space="preserve" font-family="Palatino-Roman" font-size="38.0" fill="#000000" transform="matrix(1.00, 0.00, -0.00, -1.00, 115.6, 128.0)">e</text><text xml:space="preserve" font-family="Palatino-Roman" font-size="38.0" fill="#000000" transform="matrix(1.00, 0.00, -0.00, -1.00, 133.8, 128.0)">n</text><text xml:space="preserve" font-family="Palatino-Roman" font-size="38.0" fill="#000000" transform="matrix(1.00, 0.00, -0.00, -1.00, 155.9, 128.0)"> </text><text xml:space="preserve" font-family="Palatino-Roman" font-size="38.0" fill="#000000" transform="matrix(1.00, 0.00, -0.00, -1.00, 165.4, 128.0)">u</text><text xml:space="preserve" font-family="Palatino-Roman" font-size="38.0" fill="#000000" transform="matrix(1.00, 0.00, -0.00, -1.00, 188.3, 128.0)">r</text><text xml:space="preserve" font-family="Palatino-Roman" font-size="38.0" fill="#000000" transform="matrix(1.00, 0.00, -0.00, -1.00, 203.3, 128.0)">l</text><text xml:space="preserve" font-family="Palatino-Roman" font-size="38.0" fill="#000000" transform="matrix(1.00, 0.00, -0.00, -1.00, 214.4, 128.0)">,</text><text xml:space="preserve" font-family="Palatino-Roman" font-size="38.0" fill="#000000" transform="matrix(1.00, 0.00, -0.00, -1.00, 223.9, 128.0)"> </text><text xml:space="preserve" font-family="Palatino-Roman" font-size="38.0" fill="#000000" transform="matrix(1.00, 0.00, -0.00, -1.00, 233.4, 128.0)">…</text><text xml:space="preserve" font-family="Palatino-Roman" font-size="38.0" fill="#000000" transform="matrix(1.00, 0.00, -0.00, -1.00, 271.4, 128.0)">,</text><text xml:space="preserve" font-family="Palatino-Roman" font-size="38.0" fill="#000000" transform="matrix(1.00, 0.00, -0.00, -1.00, 280.9, 128.0)"> </text><text xml:space="preserve" font-family="Palatino-Roman" font-size="38.0" fill="#000000" transform="matrix(1.00, 0.00, -0.00, -1.00, 290.4, 128.0)">a</text><text xml:space="preserve" font-family="Palatino-Roman" font-size="38.0" fill="#000000" transform="matrix(1.00, 0.00, -0.00, -1.00, 309.4, 128.0)">n</text><text xml:space="preserve" font-family="Palatino-Roman" font-size="38.0" fill="#000000" transform="matrix(1.00, 0.00, -0.00, -1.00, 331.5, 128.0)">d</text><text xml:space="preserve" font-family="Palatino-Roman" font-size="38.0" fill="#000000" transform="matrix(1.00, 0.00, -0.00, -1.00, 354.7, 128.0)"> </text><text xml:space="preserve" font-family="Palatino-Roman" font-size="38.0" fill="#000000" transform="matrix(1.00, 0.00, -0.00, -1.00, 364.2, 128.0)">o</text><text xml:space="preserve" font-family="Palatino-Roman" font-size="38.0" fill="#000000" transform="matrix(1.00, 0.00, -0.00, -1.00, 385.0, 128.0)">t</text><text xml:space="preserve" font-family="Palatino-Roman" font-size="38.0" fill="#000000" transform="matrix(1.00, 0.00, -0.00, -1.00, 397.4, 128.0)">h</text><text xml:space="preserve" font-family="Palatino-Roman" font-size="38.0" fill="#000000" transform="matrix(1.00, 0.00, -0.00, -1.00, 419.5, 128.0)">e</text><text xml:space="preserve" font-family="Palatino-Roman" font-size="38.0" fill="#000000" transform="matrix(1.00, 0.00, -0.00, -1.00, 437.7, 128.0)">r</text><text xml:space="preserve" font-family="Palatino-Roman" font-size="38.0" fill="#000000" transform="matrix(1.00, 0.00, -0.00, -1.00, 452.7, 128.0)"> </text><text xml:space="preserve" font-family="Palatino-Roman" font-size="38.0" fill="#000000" transform="matrix(1.00, 0.00, -0.00, -1.00, 462.2, 128.0)">s</text><text xml:space="preserve" font-family="Palatino-Roman" font-size="38.0" fill="#000000" transform="matrix(1.00, 0.00, -0.00, -1.00, 478.3, 128.0)">e</text><text xml:space="preserve" font-family="Palatino-Roman" font-size="38.0" fill="#000000" transform="matrix(1.00, 0.00, -0.00, -1.00, 496.5, 128.0)">l</text><text xml:space="preserve" font-family="Palatino-Roman" font-size="38.0" fill="#000000" transform="matrix(1.00, 0.00, -0.00, -1.00, 507.5, 128.0)">f</text><text xml:space="preserve" font-family="Palatino-Roman" font-size="38.0" fill="#000000" transform="matrix(1.00, 0.00, -0.00, -1.00, 520.2, 128.0)">-</text><text xml:space="preserve" font-family="Palatino-Roman" font-size="38.0" fill="#000000" transform="matrix(1.00, 0.00, -0.00, -1.00, 532.8, 128.0)">d</text><text xml:space="preserve" font-family="Palatino-Roman" font-size="38.0" fill="#000000" transform="matrix(1.00, 0.00, -0.00, -1.00, 556.1, 128.0)">e</text><text xml:space="preserve" font-family="Palatino-Roman" font-size="38.0" fill="#000000" transform="matrix(1.00, 0.00, -0.00, -1.00, 574.3, 128.0)">ﬁ</text><text xml:space="preserve" font-family="Palatino-Roman" font-size="38.0" fill="#000000" transform="matrix(1.00, 0.00, -0.00, -1.00, 597.2, 128.0)">n</text><text xml:space="preserve" font-family="Palatino-Roman" font-size="38.0" fill="#000000" transform="matrix(1.00, 0.00, -0.00, -1.00, 619.4, 128.0)">e</text><text xml:space="preserve" font-family="Palatino-Roman" font-size="38.0" fill="#000000" transform="matrix(1.00, 0.00, -0.00, -1.00, 637.6, 128.0)"> </text><text xml:space="preserve" font-family="Palatino-Roman" font-size="38.0" fill="#000000" transform="matrix(1.00, 0.00, -0.00, -1.00, 647.1, 128.0)">a</text><text xml:space="preserve" font-family="Palatino-Roman" font-size="38.0" fill="#000000" transform="matrix(1.00, 0.00, -0.00, -1.00, 666.1, 128.0)">c</text><text xml:space="preserve" font-family="Palatino-Roman" font-size="38.0" fill="#000000" transform="matrix(1.00, 0.00, -0.00, -1.00, 682.9, 128.0)">t</text><text xml:space="preserve" font-family="Palatino-Roman" font-size="38.0" fill="#000000" transform="matrix(1.00, 0.00, -0.00, -1.00, 695.3, 128.0)">i</text><text xml:space="preserve" font-family="Palatino-Roman" font-size="38.0" fill="#000000" transform="matrix(1.00, 0.00, -0.00, -1.00, 706.4, 128.0)">o</text><text xml:space="preserve" font-family="Palatino-Roman" font-size="38.0" fill="#000000" transform="matrix(1.00, 0.00, -0.00, -1.00, 727.1, 128.0)">n</text><text xml:space="preserve" font-family="Palatino-Roman" font-size="38.0" fill="#000000" transform="matrix(1.00, 0.00, -0.00, -1.00, 749.2, 128.0)">.</text></g></svg>